<mxfile host="app.diagrams.net" modified="2024-07-08T08:56:41.030Z" agent="Mozilla/5.0 (X11; Ubuntu; Linux x86_64; rv:127.0) Gecko/20100101 Firefox/127.0" version="24.4.6" etag="L1pBk0emYszGR0oDb2yL" type="github">
  <diagram name="Page-1" id="7mhFeq_YFg0wfLDGkRy8">
    <mxGraphModel>
      <root>
        <mxCell id="0" />
        <mxCell id="1" parent="0" />
      </root>
    </mxGraphModel>
  </diagram>
</mxfile>
